<svg width="311" height="30" viewBox="0 0 311 30" fill="none" xmlns="http://www.w3.org/2000/svg">
<path d="M19.9 19.272H13.782V25.58H6.638V19.272H0.482V12.546H6.638V6.2H13.782V12.546H19.9V19.272ZM23.201 9.506C23.3023 6.64333 24.189 4.452 25.861 2.932C27.533 1.38667 29.8636 0.613999 32.853 0.613999C34.8036 0.613999 36.463 0.955999 37.831 1.64C39.2243 2.29867 40.2756 3.21067 40.985 4.376C41.6943 5.516 42.049 6.808 42.049 8.252C42.049 9.97467 41.631 11.3553 40.795 12.394C39.959 13.4073 39.009 14.0913 37.945 14.446V14.598C41.0103 15.738 42.543 17.9167 42.543 21.134C42.543 22.73 42.1756 24.136 41.441 25.352C40.7063 26.568 39.6423 27.518 38.249 28.202C36.8556 28.886 35.1963 29.228 33.271 29.228C30.1043 29.228 27.5963 28.468 25.747 26.948C23.923 25.4027 22.973 23.0467 22.897 19.88H30.155C30.1043 20.8933 30.3196 21.6787 30.801 22.236C31.2823 22.7933 32.0043 23.072 32.967 23.072C33.7016 23.072 34.2716 22.844 34.677 22.388C35.1076 21.932 35.323 21.324 35.323 20.564C35.323 19.6013 35.0063 18.892 34.373 18.436C33.765 17.98 32.7643 17.752 31.371 17.752H30.041V11.71H31.333C32.2956 11.7353 33.1063 11.5833 33.765 11.254C34.449 10.8993 34.791 10.2027 34.791 9.164C34.791 8.37867 34.601 7.796 34.221 7.416C33.841 7.01067 33.3216 6.808 32.663 6.808C31.9283 6.808 31.3836 7.074 31.029 7.606C30.6996 8.11267 30.5096 8.746 30.459 9.506H23.201ZM50.5363 13.914C48.2816 12.6727 47.1543 10.7347 47.1543 8.1C47.1543 6.732 47.509 5.49067 48.2183 4.376C48.953 3.236 50.055 2.33667 51.5243 1.678C52.9936 0.993998 54.805 0.651998 56.9583 0.651998C59.1116 0.651998 60.923 0.993998 62.3923 1.678C63.8616 2.33667 64.951 3.236 65.6603 4.376C66.395 5.49067 66.7623 6.732 66.7623 8.1C66.7623 9.44267 66.4583 10.608 65.8503 11.596C65.2676 12.5587 64.4443 13.3313 63.3803 13.914C64.6976 14.598 65.6983 15.51 66.3823 16.65C67.0663 17.79 67.4083 19.1327 67.4083 20.678C67.4083 22.5273 66.9396 24.1233 66.0023 25.466C65.065 26.7833 63.7983 27.784 62.2023 28.468C60.6316 29.152 58.8836 29.494 56.9583 29.494C55.033 29.494 53.2723 29.152 51.6763 28.468C50.1056 27.784 48.8516 26.7833 47.9143 25.466C46.977 24.1233 46.5083 22.5273 46.5083 20.678C46.5083 19.1327 46.8503 17.79 47.5343 16.65C48.2183 15.51 49.219 14.598 50.5363 13.914ZM59.4663 9.278C59.4663 8.39133 59.2383 7.70733 58.7823 7.226C58.3263 6.71933 57.7183 6.466 56.9583 6.466C56.2236 6.466 55.6156 6.71933 55.1343 7.226C54.6783 7.73267 54.4503 8.41667 54.4503 9.278C54.4503 10.1393 54.6783 10.8107 55.1343 11.292C55.6156 11.7733 56.2236 12.014 56.9583 12.014C57.693 12.014 58.2883 11.7733 58.7443 11.292C59.2256 10.8107 59.4663 10.1393 59.4663 9.278ZM56.9583 17.106C55.9956 17.106 55.2103 17.3973 54.6023 17.98C54.0196 18.5373 53.7283 19.2973 53.7283 20.26C53.7283 21.172 54.0196 21.9193 54.6023 22.502C55.185 23.0847 55.9703 23.376 56.9583 23.376C57.9463 23.376 58.719 23.0847 59.2763 22.502C59.859 21.9193 60.1503 21.172 60.1503 20.26C60.1503 19.2973 59.859 18.5373 59.2763 17.98C58.6936 17.3973 57.921 17.106 56.9583 17.106ZM78.1519 14.712C78.1519 10.3547 79.0386 6.922 80.8119 4.414C82.5853 1.906 85.3719 0.651998 89.1719 0.651998C92.9719 0.651998 95.7586 1.906 97.5319 4.414C99.3306 6.922 100.23 10.3547 100.23 14.712C100.23 19.12 99.3433 22.578 97.5699 25.086C95.7966 27.594 92.9973 28.848 89.1719 28.848C85.3466 28.848 82.5473 27.594 80.7739 25.086C79.0259 22.578 78.1519 19.12 78.1519 14.712ZM92.8579 14.712C92.8579 12.432 92.6173 10.6967 92.1359 9.506C91.6546 8.29 90.6666 7.682 89.1719 7.682C87.6773 7.682 86.6893 8.29 86.2079 9.506C85.7266 10.6967 85.4859 12.432 85.4859 14.712C85.4859 17.0427 85.7139 18.816 86.1699 20.032C86.6513 21.2227 87.6519 21.818 89.1719 21.818C90.6919 21.818 91.6799 21.2227 92.1359 20.032C92.6173 18.816 92.8579 17.0427 92.8579 14.712ZM110.841 20.602C111.145 22.3247 112.082 23.186 113.653 23.186C114.793 23.186 115.565 22.654 115.971 21.59C116.401 20.5007 116.617 18.7653 116.617 16.384C116.11 17.1187 115.401 17.7013 114.489 18.132C113.577 18.5627 112.551 18.778 111.411 18.778C108.979 18.778 107.003 18.018 105.483 16.498C103.963 14.978 103.203 12.7867 103.203 9.924C103.203 8.04933 103.595 6.41533 104.381 5.022C105.166 3.60333 106.281 2.514 107.725 1.754C109.194 0.993999 110.904 0.613999 112.855 0.613999C116.731 0.613999 119.429 1.792 120.949 4.148C122.494 6.47867 123.267 9.87333 123.267 14.332C123.267 19.3227 122.519 23.0467 121.025 25.504C119.555 27.9613 117.022 29.19 113.425 29.19C111.474 29.19 109.789 28.7973 108.371 28.012C106.977 27.2013 105.901 26.15 105.141 24.858C104.406 23.5407 103.988 22.122 103.887 20.602H110.841ZM113.197 13.002C114.083 13.002 114.78 12.7487 115.287 12.242C115.793 11.71 116.047 11.0007 116.047 10.114C116.047 9.10067 115.781 8.34067 115.249 7.834C114.742 7.32733 114.033 7.074 113.121 7.074C112.209 7.074 111.487 7.34 110.955 7.872C110.448 8.37867 110.195 9.11333 110.195 10.076C110.195 10.9627 110.448 11.672 110.955 12.204C111.487 12.736 112.234 13.002 113.197 13.002ZM133.885 20.602C134.189 22.3247 135.127 23.186 136.697 23.186C137.837 23.186 138.61 22.654 139.015 21.59C139.446 20.5007 139.661 18.7653 139.661 16.384C139.155 17.1187 138.445 17.7013 137.533 18.132C136.621 18.5627 135.595 18.778 134.455 18.778C132.023 18.778 130.047 18.018 128.527 16.498C127.007 14.978 126.247 12.7867 126.247 9.924C126.247 8.04933 126.64 6.41533 127.425 5.022C128.211 3.60333 129.325 2.514 130.769 1.754C132.239 0.993999 133.949 0.613999 135.899 0.613999C139.775 0.613999 142.473 1.792 143.993 4.148C145.539 6.47867 146.311 9.87333 146.311 14.332C146.311 19.3227 145.564 23.0467 144.069 25.504C142.6 27.9613 140.067 29.19 136.469 29.19C134.519 29.19 132.834 28.7973 131.415 28.012C130.022 27.2013 128.945 26.15 128.185 24.858C127.451 23.5407 127.033 22.122 126.931 20.602H133.885ZM136.241 13.002C137.128 13.002 137.825 12.7487 138.331 12.242C138.838 11.71 139.091 11.0007 139.091 10.114C139.091 9.10067 138.825 8.34067 138.293 7.834C137.787 7.32733 137.077 7.074 136.165 7.074C135.253 7.074 134.531 7.34 133.999 7.872C133.493 8.37867 133.239 9.11333 133.239 10.076C133.239 10.9627 133.493 11.672 133.999 12.204C134.531 12.736 135.279 13.002 136.241 13.002ZM156.49 14.712C156.49 10.3547 157.376 6.922 159.15 4.414C160.923 1.906 163.71 0.651998 167.51 0.651998C171.31 0.651998 174.096 1.906 175.87 4.414C177.668 6.922 178.568 10.3547 178.568 14.712C178.568 19.12 177.681 22.578 175.908 25.086C174.134 27.594 171.335 28.848 167.51 28.848C163.684 28.848 160.885 27.594 159.112 25.086C157.364 22.578 156.49 19.12 156.49 14.712ZM171.196 14.712C171.196 12.432 170.955 10.6967 170.474 9.506C169.992 8.29 169.004 7.682 167.51 7.682C166.015 7.682 165.027 8.29 164.546 9.506C164.064 10.6967 163.824 12.432 163.824 14.712C163.824 17.0427 164.052 18.816 164.508 20.032C164.989 21.2227 165.99 21.818 167.51 21.818C169.03 21.818 170.018 21.2227 170.474 20.032C170.955 18.816 171.196 17.0427 171.196 14.712ZM189.178 20.602C189.482 22.3247 190.42 23.186 191.99 23.186C193.13 23.186 193.903 22.654 194.308 21.59C194.739 20.5007 194.954 18.7653 194.954 16.384C194.448 17.1187 193.738 17.7013 192.826 18.132C191.914 18.5627 190.888 18.778 189.748 18.778C187.316 18.778 185.34 18.018 183.82 16.498C182.3 14.978 181.54 12.7867 181.54 9.924C181.54 8.04933 181.933 6.41533 182.718 5.022C183.504 3.60333 184.618 2.514 186.062 1.754C187.532 0.993999 189.242 0.613999 191.192 0.613999C195.068 0.613999 197.766 1.792 199.286 4.148C200.832 6.47867 201.604 9.87333 201.604 14.332C201.604 19.3227 200.857 23.0467 199.362 25.504C197.893 27.9613 195.36 29.19 191.762 29.19C189.812 29.19 188.127 28.7973 186.708 28.012C185.315 27.2013 184.238 26.15 183.478 24.858C182.744 23.5407 182.326 22.122 182.224 20.602H189.178ZM191.534 13.002C192.421 13.002 193.118 12.7487 193.624 12.242C194.131 11.71 194.384 11.0007 194.384 10.114C194.384 9.10067 194.118 8.34067 193.586 7.834C193.08 7.32733 192.37 7.074 191.458 7.074C190.546 7.074 189.824 7.34 189.292 7.872C188.786 8.37867 188.532 9.11333 188.532 10.076C188.532 10.9627 188.786 11.672 189.292 12.204C189.824 12.736 190.572 13.002 191.534 13.002ZM203.711 8.214V1.222H215.415V29H207.625V8.214H203.711ZM226.478 14.712C226.478 10.3547 227.365 6.922 229.138 4.414C230.911 1.906 233.698 0.651998 237.498 0.651998C241.298 0.651998 244.085 1.906 245.858 4.414C247.657 6.922 248.556 10.3547 248.556 14.712C248.556 19.12 247.669 22.578 245.896 25.086C244.123 27.594 241.323 28.848 237.498 28.848C233.673 28.848 230.873 27.594 229.1 25.086C227.352 22.578 226.478 19.12 226.478 14.712ZM241.184 14.712C241.184 12.432 240.943 10.6967 240.462 9.506C239.981 8.29 238.993 7.682 237.498 7.682C236.003 7.682 235.015 8.29 234.534 9.506C234.053 10.6967 233.812 12.432 233.812 14.712C233.812 17.0427 234.04 18.816 234.496 20.032C234.977 21.2227 235.978 21.818 237.498 21.818C239.018 21.818 240.006 21.2227 240.462 20.032C240.943 18.816 241.184 17.0427 241.184 14.712ZM251.795 9.506C251.896 6.64333 252.783 4.452 254.455 2.932C256.127 1.38667 258.457 0.613999 261.447 0.613999C263.397 0.613999 265.057 0.955999 266.425 1.64C267.818 2.29867 268.869 3.21067 269.579 4.376C270.288 5.516 270.643 6.808 270.643 8.252C270.643 9.97467 270.225 11.3553 269.389 12.394C268.553 13.4073 267.603 14.0913 266.539 14.446V14.598C269.604 15.738 271.137 17.9167 271.137 21.134C271.137 22.73 270.769 24.136 270.035 25.352C269.3 26.568 268.236 27.518 266.843 28.202C265.449 28.886 263.79 29.228 261.865 29.228C258.698 29.228 256.19 28.468 254.341 26.948C252.517 25.4027 251.567 23.0467 251.491 19.88H258.749C258.698 20.8933 258.913 21.6787 259.395 22.236C259.876 22.7933 260.598 23.072 261.561 23.072C262.295 23.072 262.865 22.844 263.271 22.388C263.701 21.932 263.917 21.324 263.917 20.564C263.917 19.6013 263.6 18.892 262.967 18.436C262.359 17.98 261.358 17.752 259.965 17.752H258.635V11.71H259.927C260.889 11.7353 261.7 11.5833 262.359 11.254C263.043 10.8993 263.385 10.2027 263.385 9.164C263.385 8.37867 263.195 7.796 262.815 7.416C262.435 7.01067 261.915 6.808 261.257 6.808C260.522 6.808 259.977 7.074 259.623 7.606C259.293 8.11267 259.103 8.746 259.053 9.506H251.795ZM273.848 8.214V1.222H285.552V29H277.762V8.214H273.848ZM302.527 9.202C302.35 8.34067 302.059 7.70733 301.653 7.302C301.248 6.89667 300.653 6.694 299.867 6.694C298.677 6.694 297.841 7.25133 297.359 8.366C296.903 9.48067 296.663 11.2287 296.637 13.61C297.144 12.8247 297.879 12.204 298.841 11.748C299.804 11.292 300.868 11.064 302.033 11.064C304.491 11.064 306.454 11.824 307.923 13.344C309.418 14.864 310.165 17.0427 310.165 19.88C310.165 21.7547 309.773 23.4013 308.987 24.82C308.227 26.2133 307.113 27.29 305.643 28.05C304.199 28.81 302.489 29.19 300.513 29.19C296.587 29.19 293.851 27.974 292.305 25.542C290.785 23.0847 290.025 19.614 290.025 15.13C290.025 10.1647 290.836 6.51666 292.457 4.186C294.079 1.85533 296.688 0.689998 300.285 0.689998C303.199 0.689998 305.403 1.51333 306.897 3.16C308.417 4.78133 309.266 6.79533 309.443 9.202H302.527ZM300.209 16.84C299.323 16.84 298.588 17.0933 298.005 17.6C297.448 18.1067 297.169 18.8287 297.169 19.766C297.169 20.754 297.435 21.514 297.967 22.046C298.499 22.578 299.259 22.844 300.247 22.844C301.159 22.844 301.869 22.5907 302.375 22.084C302.907 21.552 303.173 20.8047 303.173 19.842C303.173 18.9047 302.907 18.17 302.375 17.638C301.869 17.106 301.147 16.84 300.209 16.84Z" fill="white"/>
</svg>
