<svg width="399" height="47" viewBox="0 0 399 47" fill="none" xmlns="http://www.w3.org/2000/svg">
<path d="M17.68 29.64C16.88 31.4533 16.0267 33.0267 15.12 34.36C14.24 35.6667 13.1067 36.6667 11.72 37.36C10.3333 38.0533 8.52 38.4 6.28 38.4C5.58667 38.4 4.82667 38.3467 4 38.24C3.17333 38.1333 2.41333 37.9867 1.72 37.8V32.6C2.36 32.8667 3.06667 33.0533 3.84 33.16C4.61333 33.2667 5.33333 33.32 6 33.32C6.88 33.32 7.58667 33.1733 8.12 32.88C8.68 32.5867 9.12 32.1867 9.44 31.68C9.78667 31.1467 10.0667 30.5733 10.28 29.96L0.4 9.44H6.8L12.12 21.8C12.2533 22.0667 12.4133 22.4133 12.6 22.84C12.7867 23.2667 12.9733 23.7067 13.16 24.16C13.3467 24.6133 13.4933 25.0133 13.6 25.36H13.8C13.9067 25.04 14.04 24.6533 14.2 24.2C14.3867 23.72 14.5733 23.24 14.76 22.76C14.9733 22.2533 15.16 21.8133 15.32 21.44L20.28 9.44H26.52L17.68 29.64ZM49.8434 16.12C49.8434 18.04 49.1634 19.5867 47.8034 20.76C46.4434 21.9333 44.7101 22.6667 42.6034 22.96V23.08C45.2168 23.3467 47.2168 24.08 48.6034 25.28C50.0168 26.4533 50.7234 27.9867 50.7234 29.88C50.7234 31.5333 50.2701 33.0133 49.3634 34.32C48.4568 35.6 47.1101 36.6 45.3234 37.32C43.5368 38.04 41.3234 38.4 38.6834 38.4C36.5234 38.4 34.6034 38.2667 32.9234 38C31.2701 37.7333 29.8301 37.3467 28.6034 36.84V31.76C29.4301 32.16 30.3634 32.5067 31.4034 32.8C32.4434 33.0667 33.4968 33.28 34.5634 33.44C35.6301 33.5733 36.6168 33.64 37.5234 33.64C40.0568 33.64 41.8834 33.28 43.0034 32.56C44.1501 31.8133 44.7234 30.7733 44.7234 29.44C44.7234 28.08 43.8968 27.0933 42.2434 26.48C40.5901 25.84 38.3634 25.52 35.5634 25.52H32.8834V20.8H35.2834C37.5501 20.8 39.3101 20.6533 40.5634 20.36C41.8168 20.0667 42.6968 19.64 43.2034 19.08C43.7101 18.52 43.9634 17.8533 43.9634 17.08C43.9634 16.0933 43.5234 15.32 42.6434 14.76C41.7901 14.1733 40.4968 13.88 38.7634 13.88C37.2968 13.88 35.9101 14.0933 34.6034 14.52C33.3234 14.9467 32.1234 15.5067 31.0034 16.2L28.3634 12.16C29.3501 11.52 30.3901 10.9733 31.4834 10.52C32.6034 10.04 33.8301 9.68 35.1634 9.44C36.4968 9.17333 37.9768 9.04 39.6034 9.04C41.7634 9.04 43.6034 9.34667 45.1234 9.96C46.6434 10.5733 47.8034 11.4133 48.6034 12.48C49.4301 13.52 49.8434 14.7333 49.8434 16.12ZM79.4609 38H73.4209V25.68H62.1009V38H56.0609V9.44H62.1009V20.64H73.4209V9.44H79.4609V38ZM104.127 38L102.047 31.2H91.6469L89.5669 38H83.0469L93.1269 9.32H100.527L110.647 38H104.127ZM98.5269 19.48C98.3935 19.0267 98.2202 18.4533 98.0069 17.76C97.7935 17.0667 97.5802 16.36 97.3669 15.64C97.1535 14.92 96.9802 14.2933 96.8469 13.76C96.7135 14.2933 96.5269 14.96 96.2869 15.76C96.0735 16.5333 95.8602 17.28 95.6469 18C95.4602 18.6933 95.3135 19.1867 95.2069 19.48L93.1669 26.12H100.607L98.5269 19.48ZM137.264 0.0399976C137.131 1.42667 136.744 2.65333 136.104 3.72C135.464 4.76 134.464 5.57333 133.104 6.16C131.744 6.74666 129.917 7.04 127.624 7.04C125.277 7.04 123.437 6.76 122.104 6.2C120.797 5.61333 119.864 4.8 119.304 3.76C118.744 2.72 118.411 1.48 118.304 0.0399976H123.624C123.757 1.50666 124.131 2.48 124.744 2.96C125.357 3.44 126.357 3.68 127.744 3.68C128.891 3.68 129.824 3.42667 130.544 2.92C131.291 2.38667 131.731 1.42667 131.864 0.0399976H137.264ZM114.264 9.44H119.704V23.24C119.704 23.9067 119.691 24.6533 119.664 25.48C119.637 26.3067 119.611 27.12 119.584 27.92C119.557 28.6933 119.531 29.3733 119.504 29.96C119.477 30.52 119.451 30.9067 119.424 31.12H119.544L132.744 9.44H139.984V38H134.584V24.28C134.584 23.56 134.597 22.7733 134.624 21.92C134.651 21.04 134.677 20.2 134.704 19.4C134.757 18.6 134.797 17.9067 134.824 17.32C134.877 16.7067 134.917 16.3067 134.944 16.12H134.784L121.544 38H114.264V9.44ZM154.85 38V9.44H177.45V38H171.41V14.48H160.89V38H154.85ZM210.575 23.68C210.575 25.8933 210.295 27.9067 209.735 29.72C209.201 31.5067 208.375 33.0533 207.255 34.36C206.161 35.6667 204.748 36.6667 203.015 37.36C201.308 38.0533 199.295 38.4 196.975 38.4C194.655 38.4 192.628 38.0533 190.895 37.36C189.188 36.64 187.775 35.64 186.655 34.36C185.561 33.0533 184.735 31.4933 184.175 29.68C183.641 27.8667 183.375 25.8533 183.375 23.64C183.375 20.68 183.855 18.1067 184.815 15.92C185.801 13.7333 187.295 12.04 189.295 10.84C191.321 9.61333 193.895 9 197.015 9C200.108 9 202.655 9.61333 204.655 10.84C206.655 12.04 208.135 13.7467 209.095 15.96C210.081 18.1467 210.575 20.72 210.575 23.68ZM189.735 23.68C189.735 25.68 189.988 27.4 190.495 28.84C191.001 30.28 191.788 31.3867 192.855 32.16C193.921 32.9333 195.295 33.32 196.975 33.32C198.708 33.32 200.095 32.9333 201.135 32.16C202.201 31.3867 202.975 30.28 203.455 28.84C203.961 27.4 204.215 25.68 204.215 23.68C204.215 20.6667 203.655 18.3067 202.535 16.6C201.415 14.8933 199.575 14.04 197.015 14.04C195.308 14.04 193.921 14.4267 192.855 15.2C191.788 15.9733 191.001 17.08 190.495 18.52C189.988 19.96 189.735 21.68 189.735 23.68ZM238.069 9.44V32.96H241.869V46.32H236.029V38H218.149V46.32H212.309V32.96H214.509C215.256 31.4667 215.976 29.8933 216.669 28.24C217.363 26.5867 218.003 24.8133 218.589 22.92C219.203 21.0267 219.749 18.9733 220.229 16.76C220.709 14.52 221.109 12.08 221.429 9.44H238.069ZM226.229 14.48C226.043 15.8667 225.776 17.3467 225.429 18.92C225.083 20.4667 224.669 22.0533 224.189 23.68C223.736 25.3067 223.229 26.9067 222.669 28.48C222.109 30.0533 221.509 31.5467 220.869 32.96H232.029V14.48H226.229ZM255.376 9.44C259.056 9.44 261.736 10.24 263.416 11.84C265.123 13.4133 265.976 15.5867 265.976 18.36C265.976 19.6133 265.79 20.8133 265.416 21.96C265.043 23.08 264.416 24.0933 263.536 25C262.683 25.88 261.55 26.5733 260.136 27.08C258.723 27.5867 256.976 27.84 254.896 27.84H252.296V38H246.256V9.44H255.376ZM255.056 14.4H252.296V22.88H254.296C255.443 22.88 256.43 22.7333 257.256 22.44C258.083 22.1467 258.723 21.68 259.176 21.04C259.63 20.4 259.856 19.5733 259.856 18.56C259.856 17.1467 259.47 16.1067 258.696 15.44C257.923 14.7467 256.71 14.4 255.056 14.4ZM297.293 23.68C297.293 25.8933 297.013 27.9067 296.453 29.72C295.92 31.5067 295.093 33.0533 293.973 34.36C292.88 35.6667 291.467 36.6667 289.733 37.36C288.027 38.0533 286.013 38.4 283.693 38.4C281.373 38.4 279.347 38.0533 277.613 37.36C275.907 36.64 274.493 35.64 273.373 34.36C272.28 33.0533 271.453 31.4933 270.893 29.68C270.36 27.8667 270.093 25.8533 270.093 23.64C270.093 20.68 270.573 18.1067 271.533 15.92C272.52 13.7333 274.013 12.04 276.013 10.84C278.04 9.61333 280.613 9 283.733 9C286.827 9 289.373 9.61333 291.373 10.84C293.373 12.04 294.853 13.7467 295.813 15.96C296.8 18.1467 297.293 20.72 297.293 23.68ZM276.453 23.68C276.453 25.68 276.707 27.4 277.213 28.84C277.72 30.28 278.507 31.3867 279.573 32.16C280.64 32.9333 282.013 33.32 283.693 33.32C285.427 33.32 286.813 32.9333 287.853 32.16C288.92 31.3867 289.693 30.28 290.173 28.84C290.68 27.4 290.933 25.68 290.933 23.68C290.933 20.6667 290.373 18.3067 289.253 16.6C288.133 14.8933 286.293 14.04 283.733 14.04C282.027 14.04 280.64 14.4267 279.573 15.2C278.507 15.9733 277.72 17.08 277.213 18.52C276.707 19.96 276.453 21.68 276.453 23.68ZM303.209 38V9.44H321.249V14.44H309.249V20.4H311.649C314.343 20.4 316.543 20.7733 318.249 21.52C319.983 22.2667 321.263 23.2933 322.089 24.6C322.916 25.9067 323.329 27.4 323.329 29.08C323.329 30.9467 322.916 32.5467 322.089 33.88C321.263 35.2133 319.983 36.24 318.249 36.96C316.516 37.6533 314.276 38 311.529 38H303.209ZM311.289 33.04C313.129 33.04 314.569 32.7467 315.609 32.16C316.676 31.5733 317.209 30.5467 317.209 29.08C317.209 28.0667 316.943 27.2933 316.409 26.76C315.903 26.2267 315.169 25.8667 314.209 25.68C313.276 25.4667 312.143 25.36 310.809 25.36H309.249V33.04H311.289ZM352.117 38H346.077V25.68H334.757V38H328.717V9.44H334.757V20.64H346.077V9.44H352.117V38ZM375.743 38H359.303V9.44H375.743V14.4H365.343V20.68H375.023V25.64H365.343V33H375.743V38ZM398.126 38H381.686V9.44H398.126V14.4H387.726V20.68H397.406V25.64H387.726V33H398.126V38Z" fill="white"/>
</svg>
